<svg viewBox="0 0 16 17" xmlns="http://www.w3.org/2000/svg"><path d="m1.5625.11090018h12.875c.8629449 0 1.5625.69955508 1.5625 1.5625v12.87500002c0 .8629449-.6995551 1.5625-1.5625 1.5625h-12.875c-.86294492 0-1.5625-.6995551-1.5625-1.5625v-12.87500002c0-.86294492.69955508-1.5625 1.5625-1.5625zm8.2275 2.08h3.38c.4142136 0 .75.33578643.75.75v5.5c0 .41421356-.3357864.75-.75.75h-3.38c-.41421356 0-.75-.33578644-.75-.75v-5.5c0-.41421357.33578644-.75.75-.75zm-6.96 0h3.38c.41421356 0 .75.33578643.75.75v9.50000002c0 .4142135-.33578644.75-.75.75h-3.38c-.41421356 0-.75-.3357865-.75-.75v-9.50000002c0-.41421357.33578644-.75.75-.75z" fill="#fff" fill-rule="evenodd"/></svg>